<svg xmlns="http://www.w3.org/2000/svg" width="24" height="24" viewBox="0 0 24 24" fill="currentColor">
  <g id="arrowDown" transform="translate(1594 -539) rotate(90)">
    <rect id="Rectangle_126" data-name="Rectangle 126" width="24" height="24" transform="translate(539 1570)" fill="none"/>
    <g id="Group_162" data-name="Group 162" transform="translate(552.032 1574.322) rotate(45)">
      <path id="Path_165" data-name="Path 165" d="M0,13.318a1,1,0,0,1-1-1V0A1,1,0,0,1-.383-.924a1,1,0,0,1,1.09.217l4.7,4.7A1,1,0,0,1,3.992,5.406L1,2.414v9.9A1,1,0,0,1,0,13.318Z" transform="translate(4.699 0)"/>
      <path id="Path_166" data-name="Path 166" d="M0,5.7a1,1,0,0,1-.707-.293,1,1,0,0,1,0-1.414l4.7-4.7a1,1,0,0,1,1.414,0,1,1,0,0,1,0,1.414l-4.7,4.7A1,1,0,0,1,0,5.7Z" transform="translate(0 0)"/>
    </g>
  </g>
</svg>
