<svg xmlns="http://www.w3.org/2000/svg" width="26.097" height="13.389" viewBox="0 0 26.097 13.389">
  <path fill="currentColor" id="Union_1" data-name="Union 1" d="M-7754.013-1086.905l-5.695-5.693a1,1,0,0,1-.292-.707h0a1,1,0,0,1,.116-.467l0-.005.006-.011.008-.014h0a1.016,1.016,0,0,1,.159-.21l5.695-5.693a1,1,0,0,1,1.414,0,1,1,0,0,1,0,1.414l-3.985,3.987h21.68a1,1,0,0,1,1,1,1,1,0,0,1-1,1h-21.682l3.986,3.987a1,1,0,0,1,0,1.414.989.989,0,0,1-.707.294A1,1,0,0,1-7754.013-1086.905Z" transform="translate(7760 1100)"/>
</svg>
