<svg xmlns="http://www.w3.org/2000/svg" viewBox="0 0 24 24" fill="currentColor"><defs><style>.cls-1{fill:none;}</style></defs><g id="Layer_2" data-name="Layer 2"><g id="icons_outlined"><path class="cls-1" d="M0,0H24V24H0Z"/><path d="M12,4.31l6.66,3.84v7.7L12,19.69,5.34,15.85V8.15L12,4.31m0-2.16a1,1,0,0,0-.5.14L3.84,6.71a1,1,0,0,0-.5.87v8.84a1,1,0,0,0,.5.87l7.66,4.42a1,1,0,0,0,1,0l7.66-4.42a1,1,0,0,0,.5-.87V7.58a1,1,0,0,0-.5-.87L12.5,2.29a1,1,0,0,0-.5-.14Z"/><path d="M12,10a2,2,0,1,1-2,2,2,2,0,0,1,2-2m0-2a4,4,0,1,0,4,4,4,4,0,0,0-4-4Z"/></g></g></svg>
