<svg xmlns="http://www.w3.org/2000/svg" width="24" height="24" viewBox="0 0 24 24">
  <g id="Group_117" data-name="Group 117" transform="translate(-805 -2094)">
    <rect id="Rectangle_115" data-name="Rectangle 115" width="24" height="24" transform="translate(805 2094)" fill="none"/>
    <path id="Path_85" data-name="Path 85" d="M1830.921,396.975l-3.6-10.819a1.126,1.126,0,0,1,1.589-1.375l4.777,2.65a1.2,1.2,0,0,0,1.659-.529l2.9-5.844a1.1,1.1,0,0,1,1.995.009l2.83,5.825a1.2,1.2,0,0,0,1.659.542l4.879-2.675a1.127,1.127,0,0,1,1.584,1.378l-3.61,10.839a2.106,2.106,0,0,1-1.989,1.458H1832.91A2.106,2.106,0,0,1,1830.921,396.975Z" transform="translate(-1022.255 1716.567)" fill="currentColor"/>
  </g>
</svg>
