<svg xmlns="http://www.w3.org/2000/svg" viewBox="0 0 24 24" fill="currentColor"><defs><style>.cls-1{fill:none;}</style></defs><g id="Layer_2" data-name="Layer 2"><g id="icons_outlined"><g id="dashboard_outlined_rounded"><rect id="Boundary" class="cls-1" width="24" height="24"/><g id="Color"><path d="M9,5V7H5V5H9m1-2H4A1,1,0,0,0,3,4V8A1,1,0,0,0,4,9h6a1,1,0,0,0,1-1V4a1,1,0,0,0-1-1Z"/><path d="M9,13v6H5V13H9m1-2H4a1,1,0,0,0-1,1v8a1,1,0,0,0,1,1h6a1,1,0,0,0,1-1V12a1,1,0,0,0-1-1Z"/><path d="M19,17v2H15V17h4m1-2H14a1,1,0,0,0-1,1v4a1,1,0,0,0,1,1h6a1,1,0,0,0,1-1V16a1,1,0,0,0-1-1Z"/><path d="M19,5v6H15V5h4m1-2H14a1,1,0,0,0-1,1v8a1,1,0,0,0,1,1h6a1,1,0,0,0,1-1V4a1,1,0,0,0-1-1Z"/></g></g></g></g></svg>
