<svg xmlns="http://www.w3.org/2000/svg" viewBox="0 0 24 24" fill="currentColor"><defs><style>.cls-1{fill:none;}</style></defs><g id="Layer_2" data-name="Layer 2"><g id="icons_filled"><g id="verified_filled_rounded"><rect id="Boundary" class="cls-1" width="24" height="24"/><path d="M6,5h6a1,1,0,0,0,1-1h0a1,1,0,0,0-1-1H6A2,2,0,0,0,4,5V19a2,2,0,0,0,2,2h6a1,1,0,0,0,1-1h0a1,1,0,0,0-1-1H6Z"/><path d="M21.65,11.65,18.86,8.86a.5.5,0,0,0-.86.35V11H11a1,1,0,0,0-1,1h0a1,1,0,0,0,1,1h7v1.79a.49.49,0,0,0,.85.35l2.79-2.79A.49.49,0,0,0,21.65,11.65Z"/></g></g></g></svg>
