<svg xmlns="http://www.w3.org/2000/svg" viewBox="0 0 24 24" fill="currentColor"><defs><style>.cls-1{fill:none;}</style></defs><g id="Layer_2" data-name="Layer 2"><g id="icons_outlined"><g id="favorite_outlined_rounded"><rect id="Boundary" class="cls-1" width="24" height="24"/><g id="_Color" data-name=" Color"><path d="M12,5.28l1.45,3.39.47,1.11,1.2.1,3.65.31L16,12.57l-.92.79.28,1.18.84,3.56L13,16.2l-1-.61-1,.61L7.8,18.1l.84-3.56.28-1.18L8,12.57,5.23,10.19l3.65-.31,1.2-.1.47-1.11L12,5.28M12,2a1.17,1.17,0,0,0-1.08.71L8.72,7.89l-5.65.47a1.16,1.16,0,0,0-.67,2l4.29,3.69L5.41,19.57A1.16,1.16,0,0,0,6.54,21a1.18,1.18,0,0,0,.61-.17L12,17.92l4.85,2.91a1.18,1.18,0,0,0,.61.17,1.16,1.16,0,0,0,1.13-1.43l-1.28-5.48L21.6,10.4a1.16,1.16,0,0,0-.67-2l-5.65-.47-2.2-5.18A1.17,1.17,0,0,0,12,2Z"/></g></g></g></g></svg>
