<svg xmlns="http://www.w3.org/2000/svg" viewBox="0 0 1647.33 437.45" fillColor="currentColor"><defs><style>.cls-1{fill:#1c1c1c;}</style></defs><g id="Layer_2" data-name="Layer 2"><g id="Layer_1-2" data-name="Layer 1"><path class="cls-1" d="M218.72,128.46c-1.55,0-3.1,0-4.63.11a65.89,65.89,0,0,1-85.52,85.52c-.07,1.53-.11,3.08-.11,4.63a90.27,90.27,0,1,0,90.26-90.26Z"/><path class="cls-1" d="M218.72,0C97.93,0,0,97.93,0,218.72S97.93,437.45,218.72,437.45V364.54a145.82,145.82,0,0,1,0-291.63V0"/><path class="cls-1" d="M481,297.68q-19,0-34.22-8.49a65.38,65.38,0,0,1-23.93-89.29,64.06,64.06,0,0,1,24.06-23.28A68.22,68.22,0,0,1,481,168a66.73,66.73,0,0,1,27,5.4,61.44,61.44,0,0,1,21.35,15.44l-21.61,21.87a32.3,32.3,0,0,0-11.71-8.23A38.8,38.8,0,0,0,481,199.65a32.55,32.55,0,0,0-16.6,4.24,31.28,31.28,0,0,0-11.57,11.58,34.08,34.08,0,0,0-4.25,17.37,35,35,0,0,0,4.25,17.37A30.74,30.74,0,0,0,464.4,262a32.55,32.55,0,0,0,16.6,4.25,38.15,38.15,0,0,0,15.31-3A32.33,32.33,0,0,0,508,254.71l21.87,21.87A65.35,65.35,0,0,1,508,292.28,66.73,66.73,0,0,1,481,297.68Z"/><path class="cls-1" d="M548.93,295.11v-186h33.7v186Z"/><path class="cls-1" d="M670.88,297.68a66.8,66.8,0,0,1-33.83-8.62,65.31,65.31,0,0,1-23.93-23.42,65.92,65.92,0,0,1-.13-65.86,64.66,64.66,0,0,1,23.93-23.16A67,67,0,0,1,670.63,168q19,0,34.09,8.62a64.9,64.9,0,0,1,23.8,23.16,62.37,62.37,0,0,1,8.75,32.8,64,64,0,0,1-32.55,56.48A66.83,66.83,0,0,1,670.88,297.68Zm-.25-31.39A33,33,0,0,0,687.48,262a28.93,28.93,0,0,0,11.32-11.83,36.77,36.77,0,0,0,4-17.37,35.06,35.06,0,0,0-4.12-17.24,30.34,30.34,0,0,0-11.32-11.71,32.32,32.32,0,0,0-16.72-4.24,31.81,31.81,0,0,0-16.47,4.24,30.34,30.34,0,0,0-11.32,11.71,35.06,35.06,0,0,0-4.12,17.24,35.79,35.79,0,0,0,4.12,17.37A30.06,30.06,0,0,0,654.16,262,31.82,31.82,0,0,0,670.63,266.29Z"/><path class="cls-1" d="M811.88,297.68q-16.47,0-29.2-6.95a50.71,50.71,0,0,1-19.94-19.3q-7.22-12.35-7.21-28.56v-72h34V242.1a31.1,31.1,0,0,0,2.57,13.25,17.79,17.79,0,0,0,7.72,8.36,24.67,24.67,0,0,0,12.09,2.84q10.54,0,16.47-6.44t5.92-18V170.83H868v72q0,16.47-7.07,28.82a49,49,0,0,1-19.81,19.17Q828.36,297.67,811.88,297.68Z"/><path class="cls-1" d="M947.22,297.68a57.19,57.19,0,0,1-30.87-8.49A60.06,60.06,0,0,1,894.86,266,68.7,68.7,0,0,1,887,233.1q0-18.53,7.85-33.2a60.46,60.46,0,0,1,21.36-23.15q13.5-8.49,31-8.49a52.57,52.57,0,0,1,24.06,5.4,45,45,0,0,1,17.24,15.05,41.08,41.08,0,0,1,7.08,21.74v44.26a42.46,42.46,0,0,1-7,21.87A45.49,45.49,0,0,1,971.41,292,51.4,51.4,0,0,1,947.22,297.68Zm5.66-31.13a31.66,31.66,0,0,0,16.6-4.25,29.47,29.47,0,0,0,11.06-11.84,37.29,37.29,0,0,0,4-17.62,36.77,36.77,0,0,0-4-17.37,29.53,29.53,0,0,0-11.06-11.84,33.66,33.66,0,0,0-32.94.13,30.67,30.67,0,0,0-11.06,11.84,36,36,0,0,0-4,17.24,37.29,37.29,0,0,0,4,17.62,29.17,29.17,0,0,0,11.19,11.84A31.33,31.33,0,0,0,952.88,266.55Zm63.3,28.56H982.73V261.66l5.4-30.36-5.66-29.85V109.08h33.71Z"/><path class="cls-1" d="M1088.74,297.94a78.63,78.63,0,0,1-39.37-10.68A58.26,58.26,0,0,1,1034.7,275l20.07-20.33a41.73,41.73,0,0,0,14.93,10.81,47.63,47.63,0,0,0,18.78,3.6q8.24,0,12.48-2.32a7.45,7.45,0,0,0,4.24-6.94,8.93,8.93,0,0,0-4.5-8,43.09,43.09,0,0,0-11.71-4.76q-7.2-1.94-15-4.37a80.24,80.24,0,0,1-15-6.44,32.15,32.15,0,0,1-11.71-11.06q-4.5-7.08-4.5-18.4a36.41,36.41,0,0,1,5.79-20.58,38.15,38.15,0,0,1,16.6-13.64q10.8-4.89,25.47-4.89a69.58,69.58,0,0,1,27.91,5.4,51.32,51.32,0,0,1,20.72,16.21l-20.33,20.33a34.1,34.1,0,0,0-12.73-10,37.91,37.91,0,0,0-15.31-3.09q-7.47,0-11.45,2.32a7.13,7.13,0,0,0-4,6.43c0,3.08,1.5,5.49,4.5,7.2a49.28,49.28,0,0,0,11.71,4.5q7.2,1.94,15,4.38a65,65,0,0,1,14.92,6.82,35.6,35.6,0,0,1,11.58,11.58q4.5,7.2,4.5,18.52,0,18.27-13.12,28.95T1088.74,297.94Z"/><path class="cls-1" d="M1218.93,297.68q-19,0-34.22-8.49A62.92,62.92,0,0,1,1152,233.1q0-18.53,8.75-33.2a64.06,64.06,0,0,1,24.06-23.28,68.19,68.19,0,0,1,34.09-8.62,66.68,66.68,0,0,1,27,5.4,61.48,61.48,0,0,1,21.36,15.44l-21.61,21.87a32.38,32.38,0,0,0-11.71-8.23,38.84,38.84,0,0,0-15-2.83,32.52,32.52,0,0,0-16.6,4.24,31.23,31.23,0,0,0-11.58,11.58,34.08,34.08,0,0,0-4.24,17.37,35,35,0,0,0,4.24,17.37A30.69,30.69,0,0,0,1202.33,262a32.53,32.53,0,0,0,16.6,4.25,38.15,38.15,0,0,0,15.31-3,32.21,32.21,0,0,0,11.7-8.62l21.88,21.87a65.29,65.29,0,0,1-21.88,15.7A66.68,66.68,0,0,1,1218.93,297.68Z"/><path class="cls-1" d="M1342.43,297.68a66.8,66.8,0,0,1-33.83-8.62,65.24,65.24,0,0,1-23.93-23.42,65.92,65.92,0,0,1-.13-65.86,64.66,64.66,0,0,1,23.93-23.16,67,67,0,0,1,33.71-8.62q19,0,34.09,8.62a65,65,0,0,1,23.8,23.16,62.37,62.37,0,0,1,8.75,32.8,64,64,0,0,1-32.55,56.48A66.86,66.86,0,0,1,1342.43,297.68Zm-.25-31.39A33,33,0,0,0,1359,262a28.93,28.93,0,0,0,11.32-11.83,36.77,36.77,0,0,0,4-17.37,35.17,35.17,0,0,0-4.12-17.24,30.34,30.34,0,0,0-11.32-11.71,32.32,32.32,0,0,0-16.72-4.24,31.81,31.81,0,0,0-16.47,4.24,30.27,30.27,0,0,0-11.32,11.71,35.06,35.06,0,0,0-4.12,17.24,35.79,35.79,0,0,0,4.12,17.37A30,30,0,0,0,1325.71,262,31.82,31.82,0,0,0,1342.18,266.29Z"/><path class="cls-1" d="M1483.43,297.68q-16.47,0-29.2-6.95a50.71,50.71,0,0,1-19.94-19.3q-7.21-12.35-7.21-28.56v-72h34V242.1a31.1,31.1,0,0,0,2.58,13.25,17.74,17.74,0,0,0,7.72,8.36,24.67,24.67,0,0,0,12.09,2.84q10.54,0,16.47-6.44t5.92-18V170.83h33.7v72q0,16.47-7.07,28.82a49,49,0,0,1-19.82,19.17Q1499.9,297.67,1483.43,297.68Z"/><path class="cls-1" d="M1555.48,200.42V170.83h91.85v29.59Zm29.07,94.69v-176h33.71v176Z"/></g></g></svg>
