<svg xmlns="http://www.w3.org/2000/svg" width="204" height="55" viewBox="0 0 204 55" fill="currentColor">
  <g id="logo" transform="translate(-4404.388 582.572)">
    <g id="icon" transform="translate(4404.388 -582.572)">
      <path id="Path_34" data-name="Path 34" d="M4544.1-454.116c-.193,0-.388.005-.578.015a8.189,8.189,0,0,1,.578,3.016,8.225,8.225,0,0,1-8.226,8.225,8.186,8.186,0,0,1-3.015-.578q-.016.288-.016.578A11.256,11.256,0,0,0,4544.1-431.6a11.256,11.256,0,0,0,11.256-11.256A11.256,11.256,0,0,0,4544.1-454.116Z" transform="translate(-4516.827 470.36)" />
      <path id="Path_35" data-name="Path 35" d="M4431.661-582.572a27.387,27.387,0,0,0-27.272,27.5,27.387,27.387,0,0,0,27.272,27.5v-9.167a18.259,18.259,0,0,1-18.183-18.333,18.259,18.259,0,0,1,18.183-18.333v-9.167" transform="translate(-4404.389 582.572)" />
    </g>
    <g id="text" transform="translate(4454.613 -568.772)">
      <path id="Path_36" data-name="Path 36" d="M4826.832-398.4a8.6,8.6,0,0,1-4.269-1.059,7.913,7.913,0,0,1-2.983-2.888,7.876,7.876,0,0,1-1.09-4.107,7.937,7.937,0,0,1,1.09-4.139,8,8,0,0,1,3-2.9,8.515,8.515,0,0,1,4.252-1.075,8.316,8.316,0,0,1,3.368.674,7.665,7.665,0,0,1,2.663,1.925l-2.694,2.727a4.038,4.038,0,0,0-1.46-1.027,4.857,4.857,0,0,0-1.877-.353,4.059,4.059,0,0,0-2.07.53,3.884,3.884,0,0,0-1.442,1.444,4.242,4.242,0,0,0-.529,2.166,4.353,4.353,0,0,0,.529,2.166,3.819,3.819,0,0,0,1.442,1.476,4.062,4.062,0,0,0,2.07.529,4.754,4.754,0,0,0,1.909-.369,4.009,4.009,0,0,0,1.459-1.075l2.728,2.727a8.123,8.123,0,0,1-2.728,1.957A8.313,8.313,0,0,1,4826.832-398.4Z" transform="translate(-4818.49 421.92)" />
      <path id="Path_37" data-name="Path 37" d="M4953.314-450.3v-23.2h4.2v23.2Z" transform="translate(-4936.502 473.496)" />
      <path id="Path_38" data-name="Path 38" d="M5016.941-398.4a8.334,8.334,0,0,1-4.219-1.075,8.14,8.14,0,0,1-2.984-2.92,7.863,7.863,0,0,1-1.106-4.123,7.767,7.767,0,0,1,1.091-4.091,8.058,8.058,0,0,1,2.983-2.888,8.366,8.366,0,0,1,4.2-1.075,8.406,8.406,0,0,1,4.252,1.075,8.1,8.1,0,0,1,2.968,2.888,7.794,7.794,0,0,1,1.09,4.091,7.961,7.961,0,0,1-1.09,4.123,8.014,8.014,0,0,1-2.968,2.92A8.338,8.338,0,0,1,5016.941-398.4Zm-.032-3.914a4.125,4.125,0,0,0,2.1-.529,3.613,3.613,0,0,0,1.411-1.476,4.591,4.591,0,0,0,.5-2.166,4.373,4.373,0,0,0-.514-2.15A3.786,3.786,0,0,0,5019-410.1a4.034,4.034,0,0,0-2.086-.53,3.968,3.968,0,0,0-2.054.53,3.786,3.786,0,0,0-1.411,1.46,4.373,4.373,0,0,0-.514,2.15,4.462,4.462,0,0,0,.514,2.166,3.756,3.756,0,0,0,1.411,1.476A3.97,3.97,0,0,0,5016.909-402.317Z" transform="translate(-4984.923 421.92)" />
      <path id="Path_39" data-name="Path 39" d="M5166.947-395.926a7.489,7.489,0,0,1-3.643-.866,6.336,6.336,0,0,1-2.486-2.406,6.939,6.939,0,0,1-.9-3.561v-8.983h4.234v8.887a3.892,3.892,0,0,0,.321,1.652,2.22,2.22,0,0,0,.962,1.043,3.081,3.081,0,0,0,1.509.353,2.65,2.65,0,0,0,2.053-.8,3.2,3.2,0,0,0,.738-2.246v-8.887h4.2v8.983a7.106,7.106,0,0,1-.882,3.593,6.122,6.122,0,0,1-2.471,2.39A7.606,7.606,0,0,1,5166.947-395.926Z" transform="translate(-5117.348 419.443)" />
      <path id="Path_40" data-name="Path 40" d="M5298.909-449.979a7.131,7.131,0,0,1-3.85-1.059,7.49,7.49,0,0,1-2.679-2.888,8.559,8.559,0,0,1-.979-4.107,8.628,8.628,0,0,1,.979-4.139,7.536,7.536,0,0,1,2.663-2.888,7.11,7.11,0,0,1,3.866-1.059,6.553,6.553,0,0,1,3,.674,5.63,5.63,0,0,1,2.149,1.877,5.108,5.108,0,0,1,.882,2.711v5.518a5.285,5.285,0,0,1-.866,2.727,5.678,5.678,0,0,1-2.149,1.925A6.409,6.409,0,0,1,5298.909-449.979Zm.706-3.882a3.951,3.951,0,0,0,2.07-.529,3.67,3.67,0,0,0,1.379-1.476,4.657,4.657,0,0,0,.5-2.2,4.587,4.587,0,0,0-.5-2.166,3.671,3.671,0,0,0-1.379-1.476,3.887,3.887,0,0,0-2.038-.529,3.855,3.855,0,0,0-2.069.545,3.8,3.8,0,0,0-1.379,1.476,4.476,4.476,0,0,0-.5,2.15,4.64,4.64,0,0,0,.5,2.2,3.623,3.623,0,0,0,1.4,1.476A3.9,3.9,0,0,0,5299.614-453.861Zm7.894,3.561h-4.171v-4.171l.673-3.786-.706-3.722V-473.5h4.2Z" transform="translate(-5232.433 473.496)" />
      <path id="Path_41" data-name="Path 41" d="M5445.831-398.6a9.6,9.6,0,0,1-2.584-.353,9.63,9.63,0,0,1-2.325-.978,7.2,7.2,0,0,1-1.829-1.524l2.5-2.535a5.185,5.185,0,0,0,1.859,1.347,5.936,5.936,0,0,0,2.342.449,3.337,3.337,0,0,0,1.558-.289.933.933,0,0,0,.529-.866,1.113,1.113,0,0,0-.562-.995,5.36,5.36,0,0,0-1.46-.593q-.9-.241-1.876-.545a9.943,9.943,0,0,1-1.876-.8,4.009,4.009,0,0,1-1.46-1.38,4.205,4.205,0,0,1-.562-2.294,4.536,4.536,0,0,1,.724-2.567,4.753,4.753,0,0,1,2.067-1.7,7.663,7.663,0,0,1,3.177-.61,8.671,8.671,0,0,1,3.48.674,6.4,6.4,0,0,1,2.585,2.021l-2.537,2.535a4.252,4.252,0,0,0-1.587-1.251,4.733,4.733,0,0,0-1.909-.385,2.872,2.872,0,0,0-1.428.289.889.889,0,0,0-.5.8.993.993,0,0,0,.561.9,6.224,6.224,0,0,0,1.46.561q.9.241,1.877.545a8.132,8.132,0,0,1,1.861.85,4.442,4.442,0,0,1,1.444,1.444,4.3,4.3,0,0,1,.562,2.31,4.4,4.4,0,0,1-1.637,3.61A6.861,6.861,0,0,1,5445.831-398.6Z" transform="translate(-5361.708 422.146)" />
      <path id="Path_42" data-name="Path 42" d="M5564.759-398.4a8.585,8.585,0,0,1-4.268-1.059,7.894,7.894,0,0,1-2.984-2.888,7.867,7.867,0,0,1-1.091-4.107,7.929,7.929,0,0,1,1.091-4.139,7.987,7.987,0,0,1,3-2.9,8.509,8.509,0,0,1,4.251-1.075,8.313,8.313,0,0,1,3.369.674,7.67,7.67,0,0,1,2.663,1.925l-2.7,2.727a4.02,4.02,0,0,0-1.458-1.027,4.859,4.859,0,0,0-1.877-.353,4.055,4.055,0,0,0-2.07.53,3.883,3.883,0,0,0-1.443,1.444,4.247,4.247,0,0,0-.53,2.166,4.358,4.358,0,0,0,.53,2.166,3.818,3.818,0,0,0,1.443,1.476,4.057,4.057,0,0,0,2.07.529,4.754,4.754,0,0,0,1.909-.369,4.014,4.014,0,0,0,1.459-1.075l2.728,2.727a8.133,8.133,0,0,1-2.728,1.957A8.31,8.31,0,0,1,5564.759-398.4Z" transform="translate(-5464.403 421.92)" />
      <path id="Path_43" data-name="Path 43" d="M5688.491-398.4a8.333,8.333,0,0,1-4.219-1.075,8.138,8.138,0,0,1-2.984-2.92,7.859,7.859,0,0,1-1.107-4.123,7.785,7.785,0,0,1,1.091-4.091,8.06,8.06,0,0,1,2.985-2.888,8.353,8.353,0,0,1,4.2-1.075,8.408,8.408,0,0,1,4.251,1.075,8.081,8.081,0,0,1,2.967,2.888,7.772,7.772,0,0,1,1.092,4.091,7.939,7.939,0,0,1-1.092,4.123,7.993,7.993,0,0,1-2.967,2.92A8.339,8.339,0,0,1,5688.491-398.4Zm-.032-3.914a4.122,4.122,0,0,0,2.1-.529,3.6,3.6,0,0,0,1.41-1.476,4.562,4.562,0,0,0,.5-2.166,4.367,4.367,0,0,0-.513-2.15,3.794,3.794,0,0,0-1.412-1.46,4.035,4.035,0,0,0-2.086-.53,3.965,3.965,0,0,0-2.053.53,3.764,3.764,0,0,0-1.411,1.46,4.357,4.357,0,0,0-.513,2.15,4.446,4.446,0,0,0,.513,2.166,3.735,3.735,0,0,0,1.411,1.476A3.967,3.967,0,0,0,5688.458-402.317Z" transform="translate(-5572.734 421.92)" />
      <path id="Path_44" data-name="Path 44" d="M5838.5-395.926a7.482,7.482,0,0,1-3.641-.866,6.318,6.318,0,0,1-2.486-2.406,6.936,6.936,0,0,1-.9-3.561v-8.983h4.236v8.887a3.9,3.9,0,0,0,.32,1.652,2.225,2.225,0,0,0,.964,1.043,3.075,3.075,0,0,0,1.507.353,2.652,2.652,0,0,0,2.054-.8,3.2,3.2,0,0,0,.738-2.246v-8.887h4.2v8.983a7.106,7.106,0,0,1-.882,3.593,6.111,6.111,0,0,1-2.47,2.39A7.6,7.6,0,0,1,5838.5-395.926Z" transform="translate(-5705.159 419.443)" />
      <path id="Path_45" data-name="Path 45" d="M5959.865-453.323v-3.69h11.454v3.69Zm3.626,11.807v-21.945h4.2v21.945Z" transform="translate(-5817.544 464.712)" />
    </g>
  </g>
</svg>
